# xmcd
#
# Track frame offsets:
#	150
#	15202
#	30347
#	46940
#	65060
#	80483
#	96350
#	111812
#	130035
#	146250
#	160913
#	177536
#
# Disc length: 2557 seconds
#
# Revision: 1
# Processed by: cddbd v1.5.2PL0 Copyright (c) Steve Scherf et al.
# Submitted via: audiograbber 1.83.01
#
DISCID=9309fb0c
DTITLE=She Daisy - The best of She Daisy
DYEAR=2008
DGENRE=Country
TTITLE0=Little Good byes
TTITLE1=This woman needs
TTITLE2=I will... but
TTITLE3=Lucky 4 you
TTITLE4=Get over yourself
TTITLE5=23 days
TTITLE6=Passenger Seat
TTITLE7=Come home soon
TTITLE8=Don't worry 'bout a thing
TTITLE9=I'm taking the wheel
TTITLE10=In terms of love
TTITLE11=God bless the american housewife
EXTD=
EXTT0=
EXTT1=
EXTT2=
EXTT3=
EXTT4=
EXTT5=
EXTT6=
EXTT7=
EXTT8=
EXTT9=
EXTT10=
EXTT11=
PLAYORDER=
